<svg id="Layer_1" data-name="Layer 1" xmlns="http://www.w3.org/2000/svg" viewBox="0 0 196 196"><defs><style>.cls-1{fill:#e8a449;}</style></defs><title>Artboard 1</title><rect class="cls-1" x="94.1" y="34.28" width="67" height="27.16"/><rect class="cls-1" x="33.1" y="69.28" width="67" height="26.99"/><rect class="cls-1" x="100.1" y="105.28" width="67" height="27.17"/><rect class="cls-1" x="35.1" y="140.28" width="67" height="27"/><path d="M155.1,31.28V57.2h-63V31.28h63m2-2h-67V59.2h67V29.28Z"/><path d="M94.1,66.12V92h-63V66.12h63m2-2h-67V94h67V64.12Z"/><path d="M161.1,102.29v25.92h-63V102.29h63m2-2h-67v29.92h67V100.29Z"/><path d="M96.1,137.13v25.92h-63V137.13h63m2-2h-67v29.92h67V135.13Z"/></svg>